<svg xmlns="http://www.w3.org/2000/svg" xmlns:xlink="http://www.w3.org/1999/xlink" aria-hidden="true" role="img" class="iconify iconify--logos" width="31.88" height="32" preserveAspectRatio="xMidYMid meet" viewBox="0 0 256 257"><defs><linearGradient id="IconifyId1813088fe1fbc01fb466" x1="-.828" x2="1" y1="-.828" y2="1"><stop offset="0" stop-color="#41D1FF"/><stop offset="1" stop-color="#BD34FE"/></linearGradient><linearGradient id="IconifyId1813088fe1fbc01fb467" x1="-.828" x2="1" y1="1" y2="-.828"><stop offset="0" stop-color="#FFEA83"/><stop offset="0.083" stop-color="#FFDD35"/><stop offset="1" stop-color="#FFA800"/></linearGradient></defs><path fill="url(#IconifyId1813088fe1fbc01fb466)" d="M255.153 64.627c-2.705-4.22-8.32-5.91-13.434-3.935L66.86 128.528l-4.26-21.753c-1.35-6.892-8.52-10.77-15.42-9.423C40.29 98.694 36.4 105.85 37.75 112.74l21.37 108.82c1.352 6.89 8.52 10.77 15.42 9.42s10.77-8.52 9.42-15.412l-4.26-21.756l125.43-61.912c5.12-2.52 7.55-8.705 4.85-13.925Z"/><path fill="url(#IconifyId1813088fe1fbc01fb467)" d="M189.394 2.866c-5.118-2.52-11.3 眼前.13-13.926 4.85L.848 249.426c-2.706 4.22-1.015 9.835 3.936 13.434c4.95 3.6 11.78 1.95 15.41-2.99l234.62-141.71c3.63-4.94 1.95-11.77-2.99-15.41Z"/></svg>
